<svg width="1270" height="170" viewBox="0 0 1270 170" fill="none" xmlns="http://www.w3.org/2000/svg">
<path d="M289.803 111.837L68.5296 0.0649422L1053.82 14.7256L978 104.762L289.803 111.837Z" fill="#FD4556"/>
<path d="M93.8778 105.215L-2.62519e-05 75.7183L166.552 79.35L228.178 110.647L93.8778 105.215Z" fill="#FD4556"/>
<path d="M992.083 47.7015L1015.7 14.3532L1207.48 15.9434L1138.56 31.712L1100.27 40.4222L992.083 47.7015Z" fill="#FD4556"/>
<path d="M141.692 60.4355L124.651 70.1919L86.1048 27.5197L105.946 35.5425L116.951 40.0229L141.692 60.4355Z" fill="#FD4556"/>
<path d="M396.032 32.4H408.192C409.899 32.4 411.307 33.0827 412.416 34.448L458.496 94.352V33.936C458.496 32.912 459.008 32.4 460.033 32.4H472.192C473.899 32.4 475.307 33.0827 476.417 34.448L542.209 120.208C542.55 120.635 542.593 121.061 542.337 121.488C542.166 121.829 541.825 122 541.312 122H525.057C523.35 122 521.942 121.317 520.833 119.952L474.753 60.048V120.464C474.753 121.488 474.241 122 473.216 122H461.057C459.35 122 457.942 121.317 456.832 119.952L410.88 60.048V120.464C410.88 121.488 410.326 122 409.216 122H396.032C395.606 122 395.222 121.872 394.88 121.616C394.624 121.275 394.496 120.891 394.496 120.464V33.936C394.496 33.5093 394.624 33.168 394.88 32.912C395.222 32.5707 395.606 32.4 396.032 32.4ZM581.936 120.464V33.936C581.936 33.5093 582.064 33.168 582.32 32.912C582.662 32.5707 583.046 32.4 583.472 32.4H595.632C597.339 32.4 598.747 33.0827 599.857 34.448L665.777 120.208C666.033 120.635 666.033 121.061 665.777 121.488C665.606 121.829 665.265 122 664.753 122H648.497C646.79 122 645.382 121.317 644.272 119.952L622.129 91.024L599.857 119.952C598.747 121.317 597.339 122 595.632 122H583.472C583.046 122 582.662 121.872 582.32 121.616C582.064 121.275 581.936 120.891 581.936 120.464ZM598.32 60.048V94.352L611.505 77.2L598.32 60.048ZM705.377 120.208V33.68C705.377 33.2533 705.505 32.912 705.761 32.656C706.102 32.3147 706.486 32.144 706.913 32.144H774.497C774.923 32.144 775.265 32.3147 775.521 32.656C775.862 32.912 776.033 33.2533 776.033 33.68V52.496C776.033 53.6907 775.649 54.7573 774.881 55.696L756.193 80.144C755.083 81.5093 753.675 82.192 751.969 82.192H735.713C735.201 82.192 734.817 82.0213 734.561 81.68C734.39 81.2533 734.475 80.8267 734.817 80.4L759.393 48.4H721.761V120.208C721.761 121.232 721.206 121.744 720.097 121.744H706.913C706.486 121.744 706.102 121.616 705.761 121.36C705.505 121.019 705.377 120.635 705.377 120.208ZM816.385 58.64C816.385 54.6293 817.195 50.9173 818.817 47.504C820.523 44.0907 822.785 41.1467 825.601 38.672C828.502 36.1973 831.83 34.2347 835.585 32.784C839.425 31.3333 843.478 30.608 847.745 30.608C854.401 30.608 860.161 31.8027 865.025 34.192C869.974 36.496 873.686 39.184 876.161 42.256C876.758 43.024 876.715 43.7067 876.033 44.304L867.201 53.52C866.859 53.8613 866.433 54.032 865.921 54.032C865.494 54.032 865.11 53.8187 864.769 53.392C864.001 52.5387 863.019 51.6853 861.825 50.832C860.715 49.9787 859.393 49.2107 857.857 48.528C856.406 47.76 854.827 47.1627 853.121 46.736C851.414 46.3093 849.665 46.096 847.873 46.096C845.739 46.096 843.777 46.4373 841.985 47.12C840.278 47.7173 838.827 48.528 837.633 49.552C836.438 50.576 835.499 51.7707 834.817 53.136C834.134 54.5013 833.793 55.952 833.793 57.488C833.793 59.9627 834.603 62.096 836.225 63.888C837.846 65.68 840.278 66.9173 843.521 67.6L856.065 70.032C860.161 70.8 863.745 72.0373 866.817 73.744C869.974 75.3653 872.577 77.328 874.625 79.632C876.758 81.936 878.379 84.5387 879.489 87.44C880.598 90.256 881.153 93.2427 881.153 96.4C881.153 99.8133 880.427 103.184 878.977 106.512C877.611 109.84 875.521 112.827 872.705 115.472C869.974 118.117 866.603 120.251 862.593 121.872C858.582 123.408 853.974 124.176 848.769 124.176C845.099 124.176 841.643 123.792 838.401 123.024C835.243 122.256 832.342 121.275 829.697 120.08C827.137 118.8 824.875 117.435 822.913 115.984C820.95 114.448 819.329 112.955 818.049 111.504C817.451 110.907 817.451 110.224 818.049 109.456L826.113 99.088C826.369 98.6613 826.71 98.448 827.137 98.448C827.649 98.3627 828.075 98.4907 828.417 98.832C829.611 99.9413 830.934 101.093 832.385 102.288C833.835 103.397 835.414 104.421 837.121 105.36C838.827 106.299 840.662 107.067 842.625 107.664C844.587 108.261 846.678 108.56 848.897 108.56C853.59 108.56 857.174 107.536 859.649 105.488C862.123 103.44 863.361 100.795 863.361 97.552C863.361 94.992 862.422 92.7733 860.545 90.896C858.753 88.9333 856.065 87.6107 852.481 86.928L839.937 84.368C832.769 82.9173 827.051 79.9733 822.785 75.536C818.518 71.0987 816.385 65.4667 816.385 58.64Z" fill="white"/>
</svg>
